<?xml version="1.0" encoding="UTF-8" standalone="no"?>
<!DOCTYPE svg PUBLIC "-//W3C//DTD SVG 1.1//EN" "http://www.w3.org/Graphics/SVG/1.1/DTD/svg11.dtd">
<svg width="100%" height="100%" viewBox="0 0 400 400" version="1.1" xmlns="http://www.w3.org/2000/svg" xmlns:xlink="http://www.w3.org/1999/xlink" xml:space="preserve" xmlns:serif="http://www.serif.com/" style="fill-rule:evenodd;clip-rule:evenodd;stroke-linejoin:round;stroke-miterlimit:2;">
    <rect x="0" y="0" width="400" height="400"/>
    <g transform="matrix(1,0,0,1,-59,-135)">
        <g transform="matrix(83.3333,0,0,83.3333,84,365.417)">
            <path d="M0.254,0.01C0.18,0.01 0.125,-0.01 0.089,-0.05C0.052,-0.09 0.039,-0.145 0.05,-0.214L0.132,-0.73L0.282,-0.73L0.2,-0.215C0.195,-0.184 0.2,-0.161 0.213,-0.145C0.226,-0.128 0.246,-0.12 0.275,-0.12C0.303,-0.12 0.326,-0.128 0.345,-0.145C0.364,-0.161 0.375,-0.184 0.38,-0.215L0.462,-0.73L0.612,-0.73L0.53,-0.214C0.523,-0.168 0.507,-0.128 0.482,-0.095C0.457,-0.061 0.426,-0.035 0.387,-0.017C0.347,0.001 0.303,0.01 0.254,0.01Z" style="fill:white;fill-rule:nonzero;"/>
        </g>
        <g transform="matrix(83.3333,0,0,83.3333,134,365.417)">
            <path d="M0.016,-0L0.132,-0.73L0.305,-0.73L0.406,-0.165C0.408,-0.19 0.41,-0.218 0.413,-0.251C0.416,-0.283 0.419,-0.315 0.422,-0.348C0.425,-0.38 0.429,-0.407 0.432,-0.43L0.48,-0.73L0.612,-0.73L0.496,-0L0.323,-0L0.223,-0.565C0.222,-0.544 0.22,-0.518 0.218,-0.489C0.215,-0.46 0.213,-0.43 0.21,-0.4C0.207,-0.37 0.203,-0.343 0.199,-0.32L0.148,-0L0.016,-0Z" style="fill:white;fill-rule:nonzero;"/>
        </g>
        <g transform="matrix(83.3333,0,0,83.3333,184,365.417)">
            <path d="M0.036,-0L0.057,-0.13L0.202,-0.13L0.276,-0.6L0.131,-0.6L0.152,-0.73L0.592,-0.73L0.571,-0.6L0.426,-0.6L0.352,-0.13L0.497,-0.13L0.476,-0L0.036,-0Z" style="fill:white;fill-rule:nonzero;"/>
        </g>
        <g transform="matrix(83.3333,0,0,83.3333,234,365.417)">
            <path d="M0.256,0.01C0.206,0.01 0.163,0.001 0.128,-0.018C0.093,-0.036 0.067,-0.062 0.051,-0.095C0.034,-0.128 0.029,-0.167 0.036,-0.21L0.182,-0.21C0.178,-0.183 0.185,-0.161 0.202,-0.145C0.219,-0.128 0.244,-0.12 0.277,-0.12C0.308,-0.12 0.335,-0.128 0.357,-0.145C0.379,-0.161 0.392,-0.181 0.395,-0.206C0.398,-0.227 0.395,-0.245 0.386,-0.262C0.377,-0.278 0.361,-0.289 0.338,-0.294L0.252,-0.315C0.197,-0.328 0.155,-0.354 0.128,-0.393C0.1,-0.431 0.09,-0.477 0.099,-0.53C0.11,-0.597 0.139,-0.648 0.187,-0.685C0.234,-0.722 0.294,-0.74 0.369,-0.74C0.417,-0.74 0.458,-0.731 0.491,-0.714C0.524,-0.696 0.548,-0.671 0.563,-0.64C0.578,-0.609 0.583,-0.572 0.576,-0.531L0.43,-0.531C0.434,-0.556 0.429,-0.576 0.415,-0.591C0.4,-0.605 0.378,-0.612 0.349,-0.612C0.32,-0.612 0.297,-0.605 0.279,-0.591C0.26,-0.577 0.249,-0.558 0.246,-0.535C0.24,-0.497 0.259,-0.473 0.303,-0.462L0.392,-0.441C0.447,-0.428 0.489,-0.401 0.516,-0.359C0.543,-0.316 0.551,-0.265 0.542,-0.206C0.531,-0.137 0.501,-0.084 0.451,-0.047C0.401,-0.009 0.336,0.01 0.256,0.01Z" style="fill:white;fill-rule:nonzero;"/>
        </g>
        <g transform="matrix(83.3333,0,0,83.3333,284,365.417)">
            <path d="M0.022,-0L0.138,-0.73L0.288,-0.73L0.243,-0.446L0.411,-0.446L0.456,-0.73L0.606,-0.73L0.49,-0L0.34,-0L0.389,-0.311L0.221,-0.311L0.172,-0L0.022,-0Z" style="fill:white;fill-rule:nonzero;"/>
        </g>
        <g transform="matrix(83.3333,0,0,83.3333,334,365.417)">
            <path d="M0.254,0.01C0.205,0.01 0.165,0.001 0.132,-0.018C0.098,-0.036 0.075,-0.062 0.061,-0.095C0.046,-0.128 0.042,-0.166 0.049,-0.21L0.098,-0.52C0.109,-0.59 0.139,-0.644 0.187,-0.683C0.234,-0.721 0.296,-0.74 0.373,-0.74C0.422,-0.74 0.464,-0.731 0.497,-0.713C0.53,-0.694 0.553,-0.669 0.568,-0.636C0.582,-0.603 0.585,-0.564 0.578,-0.52L0.529,-0.21C0.518,-0.14 0.489,-0.086 0.441,-0.048C0.393,-0.009 0.331,0.01 0.254,0.01ZM0.275,-0.12C0.335,-0.12 0.37,-0.15 0.379,-0.21L0.428,-0.52C0.437,-0.58 0.412,-0.61 0.353,-0.61C0.292,-0.61 0.257,-0.58 0.248,-0.52L0.199,-0.21C0.19,-0.15 0.215,-0.12 0.275,-0.12Z" style="fill:white;fill-rule:nonzero;"/>
        </g>
        <g transform="matrix(83.3333,0,0,83.3333,384,365.417)">
            <path d="M0.022,-0L0.138,-0.73L0.387,-0.73C0.438,-0.73 0.482,-0.72 0.517,-0.701C0.552,-0.682 0.577,-0.655 0.593,-0.62C0.608,-0.585 0.612,-0.545 0.605,-0.498C0.598,-0.452 0.581,-0.411 0.554,-0.377C0.527,-0.341 0.493,-0.314 0.452,-0.295C0.411,-0.276 0.364,-0.266 0.313,-0.266L0.214,-0.266L0.172,-0L0.022,-0ZM0.236,-0.401L0.335,-0.401C0.367,-0.401 0.394,-0.41 0.416,-0.428C0.437,-0.445 0.45,-0.469 0.455,-0.498C0.46,-0.527 0.454,-0.551 0.438,-0.569C0.421,-0.586 0.397,-0.595 0.365,-0.595L0.266,-0.595L0.236,-0.401Z" style="fill:white;fill-rule:nonzero;"/>
        </g>
    </g>
</svg>
